<svg t="1586066399422" class="icon" viewBox="0 0 1024 1024" version="1.1" xmlns="http://www.w3.org/2000/svg" p-id="3839" width="200" height="200"><path d="M512 1024A512 512 0 1 1 512 0a512 512 0 0 1 0 1024z m0-85.312A426.688 426.688 0 1 0 512 85.312a426.688 426.688 0 0 0 0 853.376zM691.2 460.8a76.8 76.8 0 1 1 0-153.6 76.8 76.8 0 0 1 0 153.6z m-358.4 0a76.8 76.8 0 1 1 0-153.6 76.8 76.8 0 0 1 0 153.6z m179.2 256c75.776 0 140.8-41.472 176.64-102.4h85.504a281.344 281.344 0 0 1-524.288 0H335.36c35.84 60.928 100.864 102.4 176.64 102.4z" fill="#000000" p-id="3840"></path></svg>
